# xmcd
#
# Track frame offsets: 
#        300
#        18227
#        31478
#        55774
#        67695
#        89835
#        104590
#        121291
#        139355
#        158481
#        179375
#        199486
#        210725
#        238104
#        258873
#
# Disc length: 3619 seconds
#
# Revision: 3
# Processed by: cddbd v1.5.2PL0 Copyright (c) Steve Scherf et al.
# Submitted via: ExactAudioCopy v0.99pb5
#
DISCID=d70e1f0f
DTITLE=Bob Margolin - My Blues and My Guitar
DYEAR=1995
DGENRE=General Blues
TTITLE0=Movin' South
TTITLE1=Maybe The Hippies Were Right
TTITLE2=The Same Thing
TTITLE3=Rip It Up
TTITLE4=Blues Lover
TTITLE5=Drip Drop
TTITLE6=Falling Star
TTITLE7=The Door Was Open
TTITLE8=Just A Bad Dream
TTITLE9=See Me In The Evening
TTITLE10=Going Home
TTITLE11=I Can Get Behind That
TTITLE12=Last Time
TTITLE13=Peace Of Mind
TTITLE14=My Old Friend
EXTD=
EXTT0=
EXTT1=
EXTT2=
EXTT3=
EXTT4=
EXTT5=
EXTT6=
EXTT7=
EXTT8=
EXTT9=
EXTT10=
EXTT11=
EXTT12=
EXTT13=
EXTT14=
PLAYORDER=
